# AST/ASF file generated using VICON BodyLanguage
# -----------------------------------------------
:version 1.10
:name VICON
:units
  mass 1.0
  length 0.45
  angle deg
:documentation
   .ast/.asf automatically generated from VICON data using
   VICON BodyBuilder and BodyLanguage model FoxedUp or BRILLIANT.MOD
:root
   order TX TY TZ RX RY RZ
   axis XYZ
   position 0 0 0  
   orientation 0 0 0 
:bonedata
  begin
     id 1 
     name lhipjoint
     direction 0.589753 -0.68606 0.426044 
     length 2.54082 
     axis 0 0 0  XYZ
  end
  begin
     id 2 
     name lfemur
     direction 0.34202 -0.939693 0  
     length 7.04539  
     axis 0 0 20  XYZ
    dof rx ry rz
    limits (-160.0 20.0)
           (-70.0 70.0)
           (-60.0 70.0)
  end
  begin
     id 3 
     name ltibia
     direction 0.34202 -0.939693 0   
     length 7.83772   
     axis 0 0 20   XYZ
    dof rx
    limits (-10.0 170.0)
  end
  begin
     id 4 
     name lfoot
     direction 0.0596604 -0.163915 0.984669   
     length 2.39542   
     axis -90 7.62852e-016 20   XYZ
    dof rx rz
    limits (-45.0 90.0)
           (-70.0 20.0)
  end
  begin
     id 5 
     name ltoes
     direction 1.53514e-011 -4.21954e-011 1   
     length 1.2047   
     axis -90 7.62852e-016 20   XYZ
    dof rx
    limits (-90.0 20.0)
  end
  begin
     id 6 
     name rhipjoint
     direction -0.580585 -0.69168 0.429534   
     length 2.52018  
     axis 0 0 0  XYZ 
  end
  begin
     id 7 
     name rfemur
     direction -0.34202 -0.939693 0   
     length 7.0101   
     axis 0 0 -20   XYZ
    dof rx ry rz
    limits (-160.0 20.0)
           (-70.0 70.0)
           (-70.0 60.0)
  end
  begin
     id 8 
     name rtibia
     direction -0.34202 -0.939693 0   
     length 7.70628   
     axis 0 0 -20   XYZ
    dof rx
    limits (-10.0 170.0)
 end
 begin
     id 9 
     name rfoot
     direction -0.0696237 -0.19129 0.979061   
     length 2.52466  
     axis -90 -7.62852e-016 -20   XYZ
    dof rx rz
    limits (-45.0 90.0)
           (-20.0 70.0)
  end
  begin
     id 10 
     name rtoes
     direction -1.53519e-011 -4.21793e-011 1   
     length 1.266   
     axis -90 -7.62852e-016 -20   XYZ
    dof rx
    limits (-90.0 20.0)
  end
  begin
     id 11 
     name lowerback
     direction 0.00381965 0.995707 -0.0924856   
     length 2.20825   
     axis 0 0 0   XYZ
    dof rx ry rz
    limits (-20.0 45.0)
           (-30.0 30.0)
           (-30.0 30.0)
  end
  begin
     id 12 
     name upperback
     direction -0.0139043 0.999634 -0.0231929   
     length 2.21517   
     axis 0 0 0   XYZ
    dof rx ry rz
    limits (-20.0 45.0)
           (-30.0 30.0)
           (-30.0 30.0)
  end
  begin
     id 13 
     name thorax
     direction -0.0143933 0.999691 0.0202892   
     length 2.22911   
     axis 0 0 0   XYZ
    dof rx ry rz
    limits (-20.0 45.0)
           (-30.0 30.0)
           (-30.0 30.0)
  end
  begin
     id 14 
     name lowerneck
     direction -0.0251153 0.981819 0.188153   
     length 1.61782   
     axis 0 0 0   XYZ
    dof rx ry rz
    limits (-20.0 45.0)
           (-30.0 30.0)
           (-30.0 30.0)
  end
  begin
     id 15 
     name upperneck
     direction 0.0563891 0.969357 -0.239095   
     length 1.64526   
     axis 0 0 0   XYZ
    dof rx ry rz
    limits (-20.0 45.0)
           (-30.0 30.0)
           (-30.0 30.0)
  end
  begin
     id 16
     name head
     direction 0.0208328 0.99459 -0.101773  
     length 1.67436  
     axis 0 0 0   XYZ
    dof rx ry rz
    limits (-20.0 45.0)
           (-30.0 30.0)
           (-30.0 30.0)
  end
  begin
     id 17 
     name lclavicle
     direction 0.917689 0.397224 0.00772059  
     length 3.31102  
     axis 0 0 0   XYZ
    dof ry rz
    limits (-20.0 10.0)
           (0.0 20.0)
  end
  begin
     id 18 
     name lhumerus
     direction 1 -4.4896e-011 2.32308e-027   
     length 5.25537   
     axis 180 -30 -90   XYZ
    dof rx ry rz
    limits (-60.0 90.0)
           (-90.0 90.0)
           (-90.0 90.0)
  end
  begin
     id 19
     name lradius
     direction 1 -4.49005e-011 -2.04271e-027   
     length 3.38855   
     axis 180 -30 -90   XYZ
    dof rx
    limits (-10.0 170.0)
  end
  begin
     id 20
     name lwrist
     direction 1 -4.48892e-011 2.56952e-028   
     length 1.69428   
     axis -5.12785e-016 90 90   XYZ
    dof ry
    limits (-180.0 0.0)
 end
  begin
     id 21 
     name lhand
     direction 1 -4.48966e-011 5.13905e-028   
     length 0.614516   
     axis -3.27915e-016 90 90   XYZ
    dof rx rz
    limits (-90.0 90.0)
           (-45.0 45.0)
  end
  begin
     id 22 
     name lfingers
     direction 1 -4.48979e-011 1.02781e-027   
     length 0.495439   
     axis -6.5583e-016 90 90   XYZ
    dof rx
    limits (0.0 90.0)
  end
  begin
     id 23
     name lthumb
     direction 0.707107 -6.35001e-011 0.707107   
     length 0.711354   
     axis -90 45 2.85299e-015   XYZ
    dof rx rz
    limits (-45.0 45.0)
           (-45.0 45.0)
  end
  begin
     id 24 
     name rclavicle
     direction -0.938556 0.342765 -0.0403177   
     length 3.27019  
     axis 0 0 0   XYZ 
    dof ry rz
    limits (-10.0 20.0)
           (-20.0 0.0)
  end
  begin
     id 25 
     name rhumerus
     direction -1 -4.48966e-011 2.52291e-027  
     length 5.38183   
     axis 180 30 90   XYZ
    dof rx ry rz
    limits (-90.0 60.0)
           (-90.0 90.0)
           (-90.0 90.0)
  end
  begin
     id 26 
     name rradius
     direction -1 -4.4896e-011 1.5797e-027   
     length 3.16988   
     axis 180 30 90   XYZ
    dof rx
    limits (-10.0 170.0)
  end
  begin
     id 27 
     name rwrist
     direction -1 -4.48947e-011 2.56952e-028   
     length 1.58494   
     axis -5.12785e-016 -90 -90   XYZ
    dof ry
    limits (-180.0 0.0)
  end
  begin
     id 28
     name rhand
     direction -1 -4.49098e-011 5.13905e-028   
     length 0.637679   
     axis -3.27915e-016 -90 -90   XYZ
    dof rx rz
    limits (-90.0 90.0)
           (-45.0 45.0)
  end
  begin
     id 29
     name rfingers
     direction -1 -4.49026e-011 1.02781e-027   
     length 0.514113   
     axis -6.5583e-016 -90 -90   XYZ
    dof rx
    limits (0.0 90.0)
  end
  begin
     id 30
     name rthumb
     direction -0.707107 -6.3491e-011 0.707107   
     length 0.738167   
     axis -90 -45 -2.85299e-015   XYZ
    dof rx rz
    limits (-45.0 45.0)
           (-45.0 45.0)
  end
:hierarchy
  begin
    root lhipjoint rhipjoint lowerback
    lhipjoint lfemur
    lfemur ltibia
    ltibia lfoot
    lfoot ltoes
    rhipjoint rfemur
    rfemur rtibia
    rtibia rfoot
    rfoot rtoes
    lowerback upperback
    upperback thorax
    thorax lowerneck lclavicle rclavicle
    lowerneck upperneck
    upperneck head
    lclavicle lhumerus
    lhumerus lradius
    lradius lwrist
    lwrist lhand lthumb
    lhand lfingers
    rclavicle rhumerus
    rhumerus rradius
    rradius rwrist
    rwrist rhand rthumb
    rhand rfingers
  end

#!OML:ASF H:\Swim\Project 1\Capture day 1\Session 1\swimmer.ASF
:FULLY-SPECIFIED
:DEGREES
3582
root 4.38291 11.8135 8.68765 95.769 -1.05294 -2.15052
lowerback 1.95467 -0.566045 -0.134486
upperback -2.80479 -0.789103 -0.549722
thorax -3.98805 -0.401015 -0.447993
lowerneck -11.2121 -5.2772 -14.0991
upperneck -4.13467 -5.53931 16.4609
head 1.54937 -2.39483 7.10974
rclavicle 5.56597e-015 -1.59028e-015
rhumerus 25.5053 23.5022 10.1815
rradius 46.7815
rwrist -36.0196
rhand -6.79727 -3.20095
rfingers 7.12502
rthumb 19.0658 -32.2865
lclavicle 5.56597e-015 -1.59028e-015
lhumerus 19.8171 -13.0409 1.04507
lradius 49.4717
lwrist 16.765
lhand -11.139 14.6863
lfingers 7.12502
lthumb 14.8866 44.1314
rfemur -32.4918 11.4774 14.3377
rtibia 38.4355
rfoot -6.81078 -18.9066
rtoes -18.8389
lfemur -35.5091 -11.2616 -14.3199
ltibia 38.2515
lfoot 3.23552 11.1123
ltoes 2.0598
3583
root 4.38847 11.8211 8.6546 95.4105 -1.08624 -2.21814
lowerback 2.26664 -0.569409 -0.0904906
upperback -2.68388 -0.791575 -0.540802
thorax -4.03998 -0.402967 -0.460713
lowerneck -11.2801 -5.22973 -14.0293
upperneck -4.20314 -5.46767 16.426
head 1.52591 -2.35811 7.09158
rclavicle -6.36111e-015 2.69602e-015
rhumerus 25.4262 23.9583 9.97592
rradius 47.6434
rwrist -35.4027
rhand -6.76983 -2.48753
rfingers 7.12502
rthumb 19.0922 -31.5705
lclavicle -6.36111e-015 2.69602e-015
lhumerus 19.2687 -13.734 1.37172
lradius 50.5727
lwrist 17.0062
lhand -10.9846 14.2023
lfingers 7.12502
lthumb 15.0354 43.6364
rfemur -31.8941 10.9157 14.7793
rtibia 38.6667
rfoot -6.47464 -18.2821
rtoes -19.1072
lfemur -34.9712 -10.7061 -14.8409
ltibia 38.491
lfoot 3.50046 10.3805
ltoes 1.77185
3584
root 4.39376 11.8286 8.62222 95.0587 -1.13171 -2.28023
lowerback 2.57045 -0.580681 -0.0586249
upperback -2.56875 -0.805281 -0.539716
thorax -4.09335 -0.410311 -0.474068
lowerneck -11.3408 -5.18177 -13.9666
upperneck -4.27662 -5.39531 16.4165
head 1.50122 -2.32098 7.08312
rclavicle -2.38542e-015 -4.67144e-015
rhumerus 25.3564 24.4267 9.78434
rradius 48.5741
rwrist -34.9623
rhand -6.82213 -1.86214
rfingers 7.12502
rthumb 19.0419 -30.95
lclavicle -2.38542e-015 -4.67144e-015
lhumerus 18.7216 -14.4331 1.66099
lradius 51.7037
lwrist 17.2372
lhand -10.8587 13.704
lfingers 7.12502
lthumb 15.1566 43.1289
rfemur -31.3209 10.4116 15.1589
rtibia 38.9044
rfoot -6.20877 -17.72
rtoes -19.2869
lfemur -34.4355 -10.1834 -15.3332
ltibia 38.7133
lfoot 3.72574 9.74423
ltoes 1.6167
3585
root 4.39879 11.8362 8.59046 94.7117 -1.19027 -2.33765
lowerback 2.86585 -0.600542 -0.0387951
upperback -2.45724 -0.831244 -0.547158
thorax -4.1458 -0.423557 -0.488666
lowerneck -11.4001 -5.13282 -13.9096
upperneck -4.34246 -5.32204 16.4287
head 1.47966 -2.28297 7.0826
rclavicle -1.66979e-014 -2.52208e-015
rhumerus 25.2939 24.9093 9.62038
rradius 49.6043
rwrist -34.7542
rhand -6.96069 -1.36719
rfingers 7.12502
rthumb 18.9086 -30.4681
lclavicle -1.66979e-014 -2.52208e-015
lhumerus 18.1702 -15.1351 1.90914
lradius 52.8636
lwrist 17.4421
lhand -10.7809 13.2158
lfingers 7.12502
lthumb 15.2316 42.635
rfemur -30.7714 9.94961 15.4832
rtibia 39.1491
rfoot -6.00356 -17.1972
rtoes -19.4016
lfemur -33.9011 -9.73354 -15.7905
ltibia 38.9181
lfoot 3.89662 9.2404
ltoes 1.5638
3586
root 4.40354 11.8437 8.55953 94.3693 -1.25596 -2.38905
lowerback 3.15651 -0.627029 -0.0276804
upperback -2.35169 -0.866694 -0.560569
thorax -4.20181 -0.44137 -0.503753
lowerneck -11.4585 -5.0832 -13.8558
upperneck -4.3965 -5.24892 16.4625
head 1.46255 -2.24459 7.08954
rclavicle 8.74653e-015 -2.48481e-015
rhumerus 25.2298 25.4063 9.48883
rradius 50.7385
rwrist -34.7451
rhand -7.15658 -1.00423
rfingers 7.12502
rthumb 18.7202 -30.1234
lclavicle 8.74653e-015 -2.48481e-015
lhumerus 17.6238 -15.8494 2.1326
lradius 54.0422
lwrist 17.6025
lhand -10.7839 12.7594
lfingers 7.12502
lthumb 15.2287 42.1789
rfemur -30.2431 9.5242 15.7642
rtibia 39.398
rfoot -5.84128 -16.7035
rtoes -19.4639
lfemur -33.3709 -9.30943 -16.2199
ltibia 39.1062
lfoot 4.02913 8.8106
ltoes 1.56835
3587
root 4.40798 11.8509 8.52944 94.0328 -1.32584 -2.43612
lowerback 3.43791 -0.657584 -0.0258158
upperback -2.2479 -0.908105 -0.576731
thorax -4.25438 -0.461904 -0.515954
lowerneck -11.5353 -5.03599 -13.8017
upperneck -4.42745 -5.1793 16.5064
head 1.45612 -2.20678 7.09897
rclavicle 3.97569e-015 4.9075e-015
rhumerus 25.162 25.8977 9.36192
rradius 51.9384
rwrist -34.8226
rhand -7.37107 -0.731661
rfingers 7.12502
rthumb 18.5139 -29.8706
lclavicle 3.97569e-015 4.9075e-015
lhumerus 17.0879 -16.5531 2.35664
lradius 55.2198
lwrist 17.6544
lhand -10.8522 12.3238
lfingers 7.12502
lthumb 15.1628 41.7483
rfemur -29.7363 9.13534 16.0083
rtibia 39.6479
rfoot -5.72035 -16.2315
rtoes -19.4736
lfemur -32.8483 -8.91703 -16.6186
ltibia 39.2808
lfoot 4.13382 8.45796
ltoes 1.58562
3588
root 4.41219 11.858 8.50037 93.7009 -1.392 -2.47916
lowerback 3.70887 -0.690847 -0.026002
upperback -2.14256 -0.953171 -0.59293
thorax -4.29941 -0.484164 -0.526667
lowerneck -11.6388 -4.99228 -13.7433
upperneck -4.43071 -5.11466 16.5516
head 1.46269 -2.17002 7.10711
rclavicle 1.27222e-014 9.95166e-015
rhumerus 25.0913 26.3812 9.24912
rradius 53.1738
rwrist -34.887
rhand -7.56415 -0.482723
rfingers 7.12502
rthumb 18.3282 -29.6393
lclavicle 1.27222e-014 9.95166e-015
lhumerus 16.5671 -17.2355 2.58329
lradius 56.391
lwrist 17.608
lhand -10.9524 11.8887
lfingers 7.12502
lthumb 15.0663 41.3204
rfemur -29.2471 8.76735 16.2298
rtibia 39.8936
rfoot -5.61413 -15.7647
rtoes -19.4766
lfemur -32.3354 -8.52985 -16.985
ltibia 39.445
lfoot 4.21343 8.14254
ltoes 1.64296
3589
root 4.41614 11.8649 8.4725 93.3762 -1.45066 -2.51863
lowerback 3.96388 -0.723354 -0.023616
upperback -2.03403 -0.996965 -0.609599
thorax -4.33213 -0.505826 -0.539382
lowerneck -11.7597 -4.95316 -13.6799
upperneck -4.42195 -5.05629 16.5955
head 1.47628 -2.13562 7.11326
rclavicle 1.51076e-014 -4.62174e-015
rhumerus 25.0092 26.8505 9.15627
rradius 54.4117
rwrist -34.8655
rhand -7.69623 -0.184331
rfingers 7.12502
rthumb 18.2011 -29.3528
lclavicle 1.51076e-014 -4.62174e-015
lhumerus 16.0681 -17.8772 2.81257
lradius 57.5531
lwrist 17.4591
lhand -11.0244 11.4208
lfingers 7.12502
lthumb 14.997 40.8577
rfemur -28.7785 8.42272 16.4336
rtibia 40.1326
rfoot -5.5159 -15.3036
rtoes -19.485
lfemur -31.8374 -8.1491 -17.3163
ltibia 39.6013
lfoot 4.28919 7.85521
ltoes 1.72566
3590
root 4.41985 11.8715 8.44576 93.0602 -1.49928 -2.5547
lowerback 4.20428 -0.754082 -0.0179569
upperback -1.92574 -1.03796 -0.623458
thorax -4.35677 -0.526114 -0.551226
lowerneck -11.888 -4.918 -13.613
upperneck -4.4095 -5.00338 16.6256
head 1.4922 -2.10383 7.11381
rclavicle 7.15625e-015 -5.889e-015
rhumerus 24.9182 27.2988 9.05214
rradius 55.6046
rwrist -34.6955
rhand -7.74176 0.218716
rfingers 7.12502
rthumb 18.1573 -28.9538
lclavicle 7.15625e-015 -5.889e-015
lhumerus 15.5923 -18.4639 3.06078
lradius 58.6961
lwrist 17.2295
lhand -11.0206 10.8887
lfingers 7.12502
lthumb 15.0006 40.3253
rfemur -28.3323 8.10304 16.624
rtibia 40.363
rfoot -5.41393 -14.8461
rtoes -19.5031
lfemur -31.3571 -7.77371 -17.6102
ltibia 39.7507
lfoot 4.37007 7.58475
ltoes 1.93792
3591
root 4.42328 11.8779 8.4202 92.7521 -1.54336 -2.58867
lowerback 4.43024 -0.780485 -0.0139246
upperback -1.81892 -1.07318 -0.637739
thorax -4.37464 -0.543463 -0.563065
lowerneck -11.9997 -4.88479 -13.5443
upperneck -4.41895 -4.95326 16.6458
head 1.49904 -2.07464 7.1111
rclavicle 7.95139e-015 5.14355e-015
rhumerus 24.8127 27.7347 8.95262
rradius 56.7488
rwrist -34.4304
rhand -7.6981 0.761478
rfingers 7.12502
rthumb 18.1993 -28.4071
lclavicle 7.95139e-015 5.14355e-015
lhumerus 15.1456 -19.0086 3.31961
lradius 59.823
lwrist 16.9702
lhand -10.9508 10.2897
lfingers 7.12502
lthumb 15.0679 39.7213
rfemur -27.9097 7.81052 16.7959
rtibia 40.5857
rfoot -5.30212 -14.3999
rtoes -19.5358
lfemur -30.8939 -7.42429 -17.8704
ltibia 39.8933
lfoot 4.47082 7.3395
ltoes 2.36715
3592
root 4.42643 11.8842 8.39608 92.4555 -1.58053 -2.61891
lowerback 4.64214 -0.801306 -0.0106632
upperback -1.71984 -1.10092 -0.651043
thorax -4.39245 -0.557063 -0.574082
lowerneck -12.0496 -4.84787 -13.4925
upperneck -4.50035 -4.89613 16.6852
head 1.47543 -2.0451 7.1194
rclavicle 5.56597e-015 -1.52816e-015
rhumerus 24.6898 28.1655 8.83574
rradius 57.8342
rwrist -34.1316
rhand -7.58903 1.42727
rfingers 7.12502
rthumb 18.3042 -27.7315
lclavicle 5.56597e-015 -1.52816e-015
lhumerus 14.7304 -19.5413 3.57246
lradius 60.9443
lwrist 16.7304
lhand -10.834 9.6356
lfingers 7.12502
lthumb 15.1804 39.0587
rfemur -27.5151 7.54454 16.9534
rtibia 40.8008
rfoot -5.16849 -13.9731
rtoes -19.5746
lfemur -30.4526 -7.08229 -18.0981
ltibia 40.0281
lfoot 4.60297 7.08914
ltoes 2.99924
3593
root 4.42931 11.8903 8.37349 92.1711 -1.61485 -2.64466
lowerback 4.83798 -0.81746 -0.0103059
upperback -1.629 -1.12267 -0.665391
thorax -4.40961 -0.567633 -0.585127
lowerneck -12.0506 -4.80935 -13.4536
upperneck -4.62973 -4.8359 16.7361
head 1.43053 -2.01648 7.13492
rclavicle -2.78299e-014 -1.46604e-015
rhumerus 24.5553 28.6064 8.7231
rradius 58.8828
rwrist -33.9074
rhand -7.46078 2.17235
rfingers 7.12502
rthumb 18.4276 -26.9748
lclavicle -2.78299e-014 -1.46604e-015
lhumerus 14.3475 -20.0818 3.80492
lradius 62.067
lwrist 16.5631
lhand -10.7082 8.96125
lfingers 7.12502
lthumb 15.3016 38.3752
rfemur -27.1509 7.2984 17.0937
rtibia 41.0095
rfoot -5.01285 -13.5689
rtoes -19.6187
lfemur -30.0328 -6.80221 -18.2905
ltibia 40.1548
lfoot 4.74632 6.88073
ltoes 3.7695
3594
root 4.43195 11.896 8.35271 91.8988 -1.6462 -2.66484
lowerback 5.02076 -0.830265 -0.0103675
upperback -1.54929 -1.14016 -0.682584
thorax -4.4309 -0.576155 -0.599277
lowerneck -12.0088 -4.76877 -13.4229
upperneck -4.79516 -4.77291 16.8032
head 1.36893 -1.98857 7.1581
rclavicle -7.95139e-016 8.08805e-015
rhumerus 24.4138 29.0751 8.64338
rradius 59.9303
rwrist -33.8491
rhand -7.36854 2.92884
rfingers 7.12502
rthumb 18.5163 -26.2099
lclavicle -7.95139e-016 8.08805e-015
lhumerus 13.9971 -20.6716 3.98916
lradius 63.2055
lwrist 16.5082
lhand -10.6443 8.32181
lfingers 7.12502
lthumb 15.3631 37.7311
rfemur -26.8155 7.06432 17.2198
rtibia 41.2114
rfoot -4.83839 -13.1871
rtoes -19.6642
lfemur -29.6353 -6.55691 -18.4543
ltibia 40.2727
lfoot 4.87325 6.69111
ltoes 4.44769
3595
root 4.43441 11.9014 8.33377 91.6403 -1.66848 -2.67885
lowerback 5.18805 -0.840259 -0.00573714
upperback -1.47906 -1.1536 -0.699094
thorax -4.45328 -0.582817 -0.61582
lowerneck -11.9622 -4.73258 -13.3996
upperneck -4.95438 -4.71594 16.8826
head 1.31003 -1.96365 7.18609
rclavicle -3.97569e-015 -8.4732e-015
rhumerus 24.2703 29.5736 8.58818
rradius 60.9863
rwrist -33.9607
rhand -7.34862 3.62732
rfingers 7.12502
rthumb 18.5355 -25.5096
lclavicle -3.97569e-015 -8.4732e-015
lhumerus 13.6795 -21.3078 4.12995
lradius 64.3532
lwrist 16.5263
lhand -10.6365 7.73327
lfingers 7.12502
lthumb 15.3706 37.1419
rfemur -26.5105 6.83815 17.3404
rtibia 41.4075
rfoot -4.65076 -12.835
rtoes -19.6955
lfemur -29.2619 -6.34996 -18.5845
ltibia 40.3823
lfoot 4.96871 6.51902
ltoes 4.87408
3596
root 4.4367 11.9062 8.3168 91.3989 -1.68658 -2.68625
lowerback 5.33331 -0.850234 -0.00062579
upperback -1.41649 -1.16698 -0.715214
thorax -4.47113 -0.589488 -0.632466
lowerneck -11.9415 -4.70324 -13.3724
upperneck -5.07223 -4.66981 16.9522
head 1.26834 -1.9427 7.2088
rclavicle 8.74653e-015 -3.24267e-015
rhumerus 24.1346 30.1027 8.56997
rradius 62.0688
rwrist -34.2022
rhand -7.42838 4.21557
rfingers 7.12502
rthumb 18.4588 -24.9286
lclavicle 8.74653e-015 -3.24267e-015
lhumerus 13.3887 -21.9821 4.22545
lradius 65.5107
lwrist 16.6025
lhand -10.6643 7.21378
lfingers 7.12502
lthumb 15.3439 36.6245
rfemur -26.2391 6.61109 17.4524
rtibia 41.5983
rfoot -4.45962 -12.5111
rtoes -19.7091
lfemur -28.9159 -6.16805 -18.6906
ltibia 40.4842
lfoot 5.03391 6.35395
ltoes 5.0352
